<svg width="512" height="184" viewBox="0 0 512 184" fill="none" xmlns="http://www.w3.org/2000/svg">
<g clip-path="url(#clip0_93_46)">
<path d="M422.127 184C415.689 184 410.437 182.643 406.371 179.928C402.473 177.213 399.171 172.886 396.459 166.949L334.957 31.0485C332.246 25.1102 331.399 19.7658 332.416 15.0152C333.432 10.2646 337.012 8.54494 340.739 6C344.467 3.28537 347.703 2 353.295 2C360.241 2 365.623 1.52697 369.013 4.58091C372.569 7.63486 375.62 12.1309 378.16 18.0691L430.005 138.191H415.774L467.619 17.8147C470.16 11.8764 473.208 7.4652 476.767 4.58091C480.325 1.52697 485.323 0 491.761 0C497.013 0 501.418 1.35731 504.977 4.07194C508.535 6.61688 510.737 10.2646 511.584 15.0152C512.601 19.7658 511.754 25.1102 509.043 31.0485L447.287 166.949C444.746 172.886 441.527 177.213 437.629 179.928C433.732 182.643 428.565 184 422.127 184Z" fill="#6666EE"/>
<path d="M244.514 184C238.633 184 233.76 182.389 229.894 179.165C226.029 175.941 223.759 171.869 223.087 166.949C222.583 162.029 224.265 157.024 228.129 151.934L281.57 80.675V101.798L229.642 32.321C225.777 27.0613 224.096 21.9714 224.6 17.0512C225.272 12.1309 230.75 6.44498 231.406 4.83541C235.272 1.61181 240.146 0 246.027 0C250.9 0 255.186 1.18764 258.882 3.56293C262.58 5.93822 266.278 9.75565 269.975 15.0152L307.535 67.6957H292.409L330.221 15.0152C333.919 9.58598 337.616 5.76856 341.312 3.56293C345.01 1.18764 349.295 0 354.17 0C360.219 0 365.176 1.61181 369.042 4.83541C372.906 7.88934 375.091 11.8764 375.595 16.7966C376.269 21.717 374.588 26.8917 370.555 32.321L318.374 101.798V80.675L371.814 151.934C375.848 157.024 377.528 162.029 376.856 166.949C376.352 171.869 374.167 175.941 370.303 179.165C366.437 182.389 361.48 184 355.429 184C350.724 184 346.523 182.898 342.825 180.691C339.128 178.317 335.347 174.414 331.482 168.984L292.661 114.777H307.282L268.714 168.984C264.848 174.414 261.067 178.317 257.371 180.691C253.674 182.898 249.387 184 244.514 184Z" fill="#FF3333"/>
<path d="M75.8049 184C69.5285 184 64.4396 182.558 60.538 179.674C56.6364 176.619 53.5831 171.954 51.3778 165.677L1.76051 27.4854C-0.953608 19.8506 -0.529527 13.4034 3.03274 8.14384C6.76464 2.71461 13.2955 0 22.6252 0C28.9016 0 33.821 1.52697 37.3832 4.58091C40.9455 7.4652 43.7443 12.0461 45.78 18.3237L83.6928 132.083H71.7336L112.445 18.3237C114.82 12.0461 117.789 7.4652 121.351 4.58091C124.913 1.52697 129.493 0 135.091 0C140.689 0 145.184 1.52697 148.577 4.58091C151.97 7.4652 154.769 12.1309 156.974 18.5781L195.141 132.083H184.963L223.894 18.3237C225.928 12.0461 228.643 7.4652 232.036 4.58091C235.598 1.52697 240.517 0 246.794 0C254.597 0 260.28 2.71461 263.842 8.14384C267.574 13.4034 267.998 19.8506 265.115 27.4854L214.988 165.931C212.783 172.038 209.73 176.619 205.828 179.674C202.096 182.558 197.092 184 190.815 184C184.37 184 179.195 182.558 175.293 179.674C171.562 176.619 168.594 171.954 166.389 165.677L130.511 64.8963H136.872L100.232 165.931C97.857 172.038 94.8037 176.619 91.0716 179.674C87.3398 182.558 82.2508 184 75.8049 184Z" fill="#44BB44"/>
</g>
<defs>
<clipPath id="clip0_93_46">
<rect width="512" height="184" fill="white"/>
</clipPath>
</defs>
</svg>
